<svg width="333" height="78" viewBox="0 0 333 78" fill="none" xmlns="http://www.w3.org/2000/svg">
<path d="M41.1417 78C33.2134 78 26.1421 76.5 19.928 73.5C13.7139 70.5 8.82119 66.1071 5.24985 60.3214C1.74995 54.4643 0 47.4286 0 39.2143C0 30.7857 1.82138 23.6429 5.46413 17.7857C9.17832 11.8571 14.2139 7.42857 20.5709 4.5C26.9993 1.5 34.2133 0 42.2131 0C50.6415 0 58.5341 1.25 65.891 3.75L64.1768 20.6786C60.7483 19.25 57.3198 18.1429 53.8914 17.3571C50.4629 16.5714 47.4987 16.1786 44.9988 16.1786C36.8561 16.1786 30.8206 18.25 26.8921 22.3929C22.9637 26.5357 20.9994 32.1429 20.9994 39.2143C20.9994 46.2857 22.9637 51.8214 26.8921 55.8214C30.8206 59.75 36.8918 61.7143 45.1059 61.7143C48.3915 61.7143 51.32 61.3571 53.8914 60.6429C56.4627 59.8571 59.3912 58.7857 62.6768 57.4286L65.0339 56.4643L66.641 73.5C63.784 74.7857 60.1412 75.8571 55.7127 76.7143C51.3557 77.5714 46.4987 78 41.1417 78Z" fill="white"/>
<path d="M168.51 1.5V76.5H148.582V48.3214L149.761 20.7857L131.011 71.0357H112.583L93.8336 20.8929L95.0122 48.3214V76.5H76.1555V1.5H106.69L123.297 46.8214L139.047 1.5H168.51Z" fill="white"/>
<path d="M182.668 1.5H216.417C220.702 1.5 224.202 1.96429 226.916 2.89286C229.702 3.75 232.345 4.85715 234.845 6.21429C240.702 9.64286 245.023 14.2143 247.809 19.9286C250.594 25.5714 252.023 31.8214 252.094 38.6786C252.094 45.5357 250.63 51.9643 247.702 57.9643C244.845 63.9643 240.559 68.5714 234.845 71.7857C229.488 74.9286 223.345 76.5 216.417 76.5H182.668V1.5ZM211.595 61.2857C214.667 61.2857 217.488 60.8571 220.059 60C222.631 59.0714 224.738 57.6786 226.381 55.8214C229.738 52.1071 231.416 46.3571 231.416 38.5714C231.416 30.2143 229.274 24.2857 224.988 20.7857C221.702 18.0714 217.238 16.7143 211.595 16.7143H202.274V61.2857H211.595Z" fill="white"/>
<path d="M291.965 46.8214L282.001 57.9643L281.894 76.5H262.395V1.5H282.001V33L309.536 1.5H332.464L306.108 30.9643L333 76.5H308.894L291.965 46.8214Z" fill="white"/>
</svg>
